#N canvas 556 594 450 300 10;
#X obj 53 110 osc~;
#X floatatom 53 77 5 0 0 0 - - -, f 5;
#X msg 53 43 440;
#X obj 120 110 fullphasor~;
#X floatatom 118 74 5 0 0 0 - - -, f 5;
#X obj 81 11 loadbang;
#X obj 64 272 dac~;
#X msg 108 39 -0.1;
#X obj 81 158 AMmod~;
#X msg 189 39 1;
#X obj 133 188 osc~;
#X obj 81 224 AMmod~;
#X floatatom 155 165 5 0 0 0 - - -, f 5;
#X msg 200 133 20;
#X msg 165 132 4;
#X msg 238 132 90;
#X msg 149 41 0;
#X msg 132 134 0;
#X connect 0 0 8 0;
#X connect 1 0 0 0;
#X connect 2 0 1 0;
#X connect 3 0 8 1;
#X connect 4 0 3 0;
#X connect 5 0 2 0;
#X connect 5 0 7 0;
#X connect 5 0 14 0;
#X connect 7 0 4 0;
#X connect 8 0 11 0;
#X connect 9 0 4 0;
#X connect 10 0 11 1;
#X connect 11 0 6 0;
#X connect 11 0 6 1;
#X connect 12 0 10 0;
#X connect 13 0 12 0;
#X connect 14 0 12 0;
#X connect 15 0 12 0;
#X connect 16 0 4 0;
#X connect 17 0 12 0;
