#N canvas 753 414 647 528 10;
#N canvas 0 50 450 250 (subpatch) 0;
#X array custom_wave_shape 11 float 3;
#A 0 -0.929818 0 0.929818 0.685039 0.929818 4.82661e-06 -0.929817 -0.68504
-0.929817 -1.09905e-05 0.929818;
#X coords 0 1 11 -1 200 140 1;
#X restore 369 -37 graph;
#X obj 49 54 hsl 128 15 -1 1 0 0 empty empty empty -2 -8 0 10 -262144
-1 -1 0 1;
#X obj 69 82 hsl 128 15 -1 1 0 0 empty empty empty -2 -8 0 10 -262144
-1 -1 0 1;
#X obj 90 111 hsl 128 15 -1 1 0 0 empty empty empty -2 -8 0 10 -262144
-1 -1 0 1;
#X obj 111 137 hsl 128 15 -1 1 0 0 empty empty empty -2 -8 0 10 -262144
-1 -1 0 1;
#X obj 27 142 bng 15 250 50 0 empty empty empty 17 7 0 10 -262144 -1
-1;
#X msg 72 3 0;
#X msg 25 323 \; custom_wave_shape normalize 1;
#X obj 358 414 dac~;
#X obj 359 287 tabread4~ custom_wave_shape;
#X obj 27 224 pack f f f f f;
#X obj -11 -3 vsl 15 128 2 15 0 0 empty empty empty 0 -9 0 10 -262144
-1 -1 0 1;
#X obj -11 174 expr pow(2 \, $f1);
#X obj -11 142 div 1;
#X msg 27 270 \; custom_wave_shape sinesum \$1 \$2 \$3 \$4 \$5;
#X floatatom -11 226 5 0 0 0 - - -, f 5;
#X obj 360 243 *~;
#X obj 374 209 phasor~ 440;
#X obj 16 34 bng 15 250 50 0 empty empty empty 17 7 0 10 -262144 -1
-1;
#X obj 377 138 hsl 128 15 20 22050 1 0 empty empty empty -2 -8 0 10
-262144 -1 -1 0 1;
#X obj 326 231 vsl 15 128 0.0009 1 1 0 empty empty empty 0 -9 0 10
-262144 -1 -1 0 1;
#X obj 343 373 *~;
#X obj 374 171 sig~;
#X floatatom 420 170 8 0 0 0 - - -, f 8;
#X text 27 5 V;
#X text 27 -17 | update wave with parameters;
#X text -8 -40 V wave granularity;
#X text 239 84 < wave parameters;
#X text 118 3 < reset wave;
#X text 374 119 base frequency;
#X text 316 208 gain;
#X text 24 356 ^ normalize wave into bounds;
#X connect 1 0 10 1;
#X connect 1 0 5 0;
#X connect 2 0 5 0;
#X connect 2 0 10 2;
#X connect 3 0 5 0;
#X connect 3 0 10 3;
#X connect 4 0 5 0;
#X connect 4 0 10 4;
#X connect 5 0 10 0;
#X connect 6 0 1 0;
#X connect 6 0 2 0;
#X connect 6 0 3 0;
#X connect 6 0 4 0;
#X connect 6 0 18 0;
#X connect 9 0 21 1;
#X connect 10 0 14 0;
#X connect 11 0 13 0;
#X connect 12 0 10 0;
#X connect 12 0 15 0;
#X connect 12 0 16 0;
#X connect 13 0 12 0;
#X connect 16 0 9 0;
#X connect 17 0 16 1;
#X connect 18 0 10 0;
#X connect 19 0 22 0;
#X connect 19 0 23 0;
#X connect 20 0 21 0;
#X connect 21 0 8 0;
#X connect 21 0 8 1;
#X connect 22 0 17 0;
