#N canvas 799 313 316 551 10;
#X obj -162 53 loadbang;
#X obj -135 108 inlet;
#X obj -131 466 inlet;
#X obj -104 418 inlet;
#X obj -135 138 route list;
#X obj -162 513 outlet;
#X obj -137 489 outlet;
#X obj -112 443 outlet;
#X text -163 22 see handle3args.pd for better info;
#X obj -162 85 list \$1 \$2 \$3 \$4 \$5 \$6 \$7 \$8;
#X obj -87 393 outlet;
#X obj -79 372 inlet;
#X obj -61 348 outlet;
#X obj -51 327 inlet;
#X obj -36 303 outlet;
#X obj -28 281 inlet;
#X obj -11 260 outlet;
#X obj -2 239 inlet;
#X obj -162 173 unpack \$1 \$2 \$3 \$4 \$5 \$6 \$7 \$8;
#X obj 15 217 outlet;
#X obj 23 196 inlet;
#X connect 0 0 9 0;
#X connect 1 0 4 0;
#X connect 2 0 6 0;
#X connect 3 0 7 0;
#X connect 4 0 18 0;
#X connect 4 1 5 0;
#X connect 9 0 18 0;
#X connect 11 0 10 0;
#X connect 13 0 12 0;
#X connect 15 0 14 0;
#X connect 17 0 16 0;
#X connect 18 0 5 0;
#X connect 18 1 6 0;
#X connect 18 2 7 0;
#X connect 18 3 10 0;
#X connect 18 4 12 0;
#X connect 18 5 14 0;
#X connect 18 6 16 0;
#X connect 18 7 19 0;
#X connect 20 0 19 0;
