#N canvas 53 552 381 297 10;
#X floatatom 129 157 8 20 22050 0 - - -, f 8;
#X obj 129 29 inlet;
#X obj 129 186 outlet;
#X text 65 222 generate 40 to 12000 with natural log decay;
#X obj 129 61 random 9389;
#X obj 129 93 expr pow(2.7182 \, $f1/1000.0);
#X obj 129 125 + 39;
#X connect 0 0 2 0;
#X connect 1 0 4 0;
#X connect 4 0 5 0;
#X connect 5 0 6 0;
#X connect 6 0 0 0;
