#N canvas 797 484 567 449 10;
#X obj 203 -510 bng 15 250 50 0 empty empty empty 17 7 0 10 -262144
-1 -1;
#X floatatom 317 -459 5 0 0 0 - - -, f 5;
#X obj 234 -545 metro 142.5;
#X text 336 -575 override metro period;
#X obj 273 -231 outlet~;
#X text 278 -595 toggle/switch metro;
#X obj 20 -646 inlet;
#X obj 203 -619 inlet;
#X obj 234 -594 inlet;
#X obj 297 -574 inlet;
#X text 252 -620 toggle new frequency;
#X obj 96 -368 fullphasor~;
#X obj 20 -466 select saw square sine;
#X text 72 -647 supply saw \, square \, or sine. any other symbol stops
output.;
#X obj 98 -298 *~;
#X msg 20 -367 1;
#X msg 62 -367 0;
#X floatatom 43 -336 5 0 0 0 - - -, f 5;
#X obj 274 -302 *~;
#X msg 196 -371 1;
#X msg 238 -371 0;
#X floatatom 219 -340 5 0 0 0 - - -, f 5;
#X obj 272 -372 square~;
#X obj 437 -303 *~;
#X msg 359 -372 1;
#X msg 401 -372 0;
#X floatatom 382 -341 5 0 0 0 - - -, f 5;
#X obj 435 -373 osc~;
#X obj 203 -486 lnrnd4Hz;
#X connect 0 0 28 0;
#X connect 2 0 0 0;
#X connect 6 0 12 0;
#X connect 7 0 0 0;
#X connect 8 0 2 0;
#X connect 9 0 2 1;
#X connect 11 0 14 0;
#X connect 12 0 15 0;
#X connect 12 0 20 0;
#X connect 12 0 25 0;
#X connect 12 1 16 0;
#X connect 12 1 19 0;
#X connect 12 1 25 0;
#X connect 12 2 16 0;
#X connect 12 2 20 0;
#X connect 12 2 24 0;
#X connect 12 3 16 0;
#X connect 12 3 20 0;
#X connect 12 3 25 0;
#X connect 14 0 4 0;
#X connect 15 0 17 0;
#X connect 16 0 17 0;
#X connect 17 0 14 1;
#X connect 18 0 4 0;
#X connect 19 0 21 0;
#X connect 20 0 21 0;
#X connect 21 0 18 1;
#X connect 22 0 18 0;
#X connect 23 0 4 0;
#X connect 24 0 26 0;
#X connect 25 0 26 0;
#X connect 26 0 23 1;
#X connect 27 0 23 0;
#X connect 28 0 1 0;
#X connect 28 0 11 0;
#X connect 28 0 22 0;
#X connect 28 0 27 0;
