#N canvas 1005 647 450 300 10;
#X obj 16 14 inlet~;
#X obj 63 14 inlet~;
#X obj 133 46 inlet~;
#X obj 178 46 inlet~;
#X obj 246 73 inlet;
#X obj 17 210 *~;
#X obj 64 209 *~;
#X obj 132 211 *~;
#X obj 179 211 *~;
#X obj 141 138 expr 1 - $f1;
#X obj 85 176 sig~;
#X obj 224 176 sig~;
#X obj 53 272 outlet~;
#X obj 122 271 outlet~;
#X text 118 13 two channels for A deck;
#X text 231 44 two channels for B deck;
#X obj 246 109 hardbounds 0 0 1;
#X text 291 68 percentage of B deck to use between 0..1;
#X text 300 126 start with only A deck;
#X connect 0 0 5 0;
#X connect 1 0 6 0;
#X connect 2 0 7 0;
#X connect 3 0 8 0;
#X connect 4 0 16 0;
#X connect 5 0 12 0;
#X connect 6 0 13 0;
#X connect 7 0 12 0;
#X connect 8 0 13 0;
#X connect 9 0 10 0;
#X connect 10 0 6 1;
#X connect 10 0 5 1;
#X connect 11 0 8 1;
#X connect 11 0 7 1;
#X connect 16 0 9 0;
#X connect 16 0 11 0;
