#N canvas 837 381 546 539 10;
#X obj 210 59 hsl 128 15 -1 1 0 0 empty empty empty -2 -8 0 10 -262144
-1 -1 12600 1;
#X obj 230 87 hsl 128 15 -1 1 0 0 empty empty empty -2 -8 0 10 -262144
-1 -1 4650 1;
#X obj 251 116 hsl 128 15 -1 1 0 0 empty empty empty -2 -8 0 10 -262144
-1 -1 6550 1;
#X obj 268 145 hsl 128 15 -1 1 0 0 empty empty empty -2 -8 0 10 -262144
-1 -1 5550 1;
#X obj 265 218 bng 15 250 50 0 empty empty empty 17 7 0 10 -262144
-1 -1;
#X msg 207 10 0;
#X obj 106 442 dac~;
#X obj 128 9 vsl 15 128 2 15 0 0 empty empty empty 0 -9 0 10 -262144
-1 -1 3054 1;
#X obj 20 183 hsl 128 15 20 22050 1 0 empty empty empty -2 -8 0 10
-262144 -1 -1 1504 1;
#X obj 400 274 vsl 15 128 0.0009 1 1 0 empty empty empty 0 -9 0 10
-262144 -1 -1 11300 1;
#X obj 118 399 *~;
#X floatatom 17 211 8 0 0 0 - - -, f 8;
#X text 27 162 base frequency;
#X text 422 325 gain;
#X text 94 -18 wave granularity;
#X text 241 9 reset parameters;
#X obj 207 -27 loadbang;
#X text 385 81 wave parameters;
#X text 271 201 force wave update;
#X obj 153 404 *~;
#X obj 154 374 wavegenerator~;
#X obj 154 307 loadbang;
#X obj 117 283 wavegenerator~;
#X msg 17 129 440, f 4;
#X obj 17 -18 loadbang;
#X msg 64 30 4;
#X text 25 108 set A440;
#X text 38 50 set 2^4=16;
#X msg 154 338 440 4 1 0 0 0;
#X floatatom 140 153 5 0 0 0 - - -, f 5;
#X floatatom 165 88 5 0 0 0 - - -, f 5;
#X floatatom 178 111 5 0 0 0 - - -, f 5;
#X floatatom 195 131 5 0 0 0 - - -, f 5;
#X floatatom 212 160 5 0 0 0 - - -, f 5;
#X floatatom 400 410 5 0 0 0 - - -, f 5;
#X msg 248 338 45 5 0.98 -0.25 0 -0.12;
#X connect 0 0 4 0;
#X connect 0 0 22 2;
#X connect 0 0 30 0;
#X connect 1 0 4 0;
#X connect 1 0 22 3;
#X connect 1 0 31 0;
#X connect 2 0 4 0;
#X connect 2 0 22 4;
#X connect 2 0 32 0;
#X connect 3 0 4 0;
#X connect 3 0 22 5;
#X connect 3 0 33 0;
#X connect 4 0 22 7;
#X connect 5 0 0 0;
#X connect 5 0 1 0;
#X connect 5 0 2 0;
#X connect 5 0 3 0;
#X connect 5 0 9 0;
#X connect 7 0 22 1;
#X connect 7 0 29 0;
#X connect 8 0 11 0;
#X connect 9 0 10 1;
#X connect 9 0 19 1;
#X connect 9 0 34 0;
#X connect 10 0 6 0;
#X connect 11 0 22 0;
#X connect 16 0 5 0;
#X connect 19 0 6 1;
#X connect 20 0 19 0;
#X connect 21 0 28 0;
#X connect 22 0 10 0;
#X connect 23 0 8 0;
#X connect 24 0 23 0;
#X connect 24 0 25 0;
#X connect 25 0 7 0;
#X connect 28 0 20 0;
#X connect 35 0 20 0;
