#N canvas 858 341 546 539 10;
#X obj 210 59 hsl 128 15 -1 1 0 0 empty empty empty -2 -8 0 10 -262144
-1 -1 6000 1;
#X obj 230 87 hsl 128 15 -1 1 0 0 empty empty empty -2 -8 0 10 -262144
-1 -1 2150 1;
#X obj 251 116 hsl 128 15 -1 1 0 0 empty empty empty -2 -8 0 10 -262144
-1 -1 6050 1;
#X obj 268 145 hsl 128 15 -1 1 0 0 empty empty empty -2 -8 0 10 -262144
-1 -1 4650 1;
#X obj 265 218 bng 15 250 50 0 empty empty empty 17 7 0 10 -262144
-1 -1;
#X msg 207 10 0;
#X obj 106 442 dac~;
#X obj 128 7 vsl 15 128 2 15 0 0 empty empty empty 0 -9 0 10 -262144
-1 -1 4900 1;
#X obj 20 183 hsl 128 15 20 22050 1 0 empty empty empty -2 -8 0 10
-262144 -1 -1 3800 1;
#X obj 310 259 vsl 15 128 0.0009 1 1 0 empty empty empty 0 -9 0 10
-262144 -1 -1 11200 1;
#X obj 118 399 *~;
#X floatatom 17 211 8 0 0 0 - - -, f 8;
#X text 17 164 base frequency;
#X text 332 310 gain;
#X text 94 -18 wave granularity;
#X text 241 9 reset parameters;
#X obj 207 -27 loadbang;
#X text 385 81 wave parameters;
#X text 271 201 force wave update;
#X obj 117 283 wavegenerator~;
#X obj 138 333 wavegenerator~;
#X obj 153 404 *~;
#X text 165 350 second instance shows independence of arrays;
#X connect 0 0 4 0;
#X connect 0 0 19 2;
#X connect 0 0 20 3;
#X connect 1 0 4 0;
#X connect 1 0 19 3;
#X connect 1 0 20 4;
#X connect 2 0 4 0;
#X connect 2 0 19 4;
#X connect 2 0 20 5;
#X connect 3 0 4 0;
#X connect 3 0 19 5;
#X connect 3 0 20 2;
#X connect 4 0 19 7;
#X connect 4 0 20 7;
#X connect 5 0 0 0;
#X connect 5 0 1 0;
#X connect 5 0 2 0;
#X connect 5 0 3 0;
#X connect 5 0 9 0;
#X connect 7 0 19 1;
#X connect 7 0 20 1;
#X connect 8 0 11 0;
#X connect 9 0 10 1;
#X connect 9 0 21 1;
#X connect 10 0 6 0;
#X connect 11 0 19 0;
#X connect 11 0 20 0;
#X connect 16 0 5 0;
#X connect 19 0 10 0;
#X connect 20 0 21 0;
#X connect 21 0 6 1;
